<?xml version="1.0" encoding="utf-8"?>
<!-- Generator: Adobe Illustrator 21.1.0, SVG Export Plug-In . SVG Version: 6.00 Build 0)  -->
<svg version="1.1" id="Layer_1" xmlns="http://www.w3.org/2000/svg" xmlns:xlink="http://www.w3.org/1999/xlink" x="0px" y="0px"
	 viewBox="0 0 500 500" style="enable-background:new 0 0 500 500;" xml:space="preserve">
<style type="text/css">
	.st0{fill:#5277F7;}
</style>
<g>
	<path class="st0" d="M88.6,378.7c-11.9,0-23.5,0-35,0c-1.5,0-3,0.1-4.5,0c-5.1-0.3-8.5-3.7-8.3-8.2c0.2-4.3,3.5-7.6,8.4-7.7
		c11.1-0.1,22.1-0.1,33.2-0.1c2,0,4,0,6.7,0c0-2.3,0-4.2,0-6.2c0-36.6,0-73.2,0-109.7c0-11.1,1.6-12.7,12.7-13c1,0,1.9-0.1,3.4-0.2
		c0-7.4,0-14.6,0-21.8c0-7.3,2.8-10.2,10-10.2c41.6,0,83.2,0,124.8,0c7.2,0,10,2.8,10.1,10.1c0.1,7.2,0,14.4,0,22.1
		c2.4,0,4.4,0,6.3,0c6.9,0.1,9.8,3,9.8,9.9c0,21.3,0,42.6,0,63.9c0,2,0,4,0,6.7c7.6,0,14.9-0.2,22.2,0.1c2.4,0.1,5.7,0.5,6.9,2
		c1.7,2.2,2.8,5.7,2.4,8.4c-0.6,3.9-4.1,5.4-8,5.4c-10.2,0-20.5,0-30.7,0c-8,0-16.1,0-24.5,0c0,48.3,0,96.4,0,144.7
		c15.8,0,31.6,0,48,0c0-1.9,0-3.7,0-5.5c0-36.7,0-73.5,0-110.2c0-1.5-0.1-3,0-4.5c0.3-4.8,3.5-8.1,7.8-8.2c4.5-0.1,7.8,3.3,8.1,8.4
		c0.1,1.3,0,2.7,0,4c0,36.7,0,73.5,0,110.2c0,1.8,0,3.6,0,5.8c32.3,0,64.3,0,96.5,0c0-5.1,0-10.1,0-15.9c-1.7,0-3.5,0-5.2,0
		c-20.8,0-41.6,0-62.4,0c-1.3,0-2.7,0-4,0c-5.2-0.3-8.6-3.5-8.5-8c0-4.5,3.5-7.9,8.6-7.9c17.3-0.1,34.6,0,51.8,0c6.5,0,13,0,19.7,0
		c0-5.5,0-10.5,0-16.2c-1.8,0-3.5,0-5.3,0c-21.6,0-43.3,0-64.9,0c-5.9,0-9.4-2.5-9.9-7.1c-0.6-5.1,3.3-8.9,9.6-8.9
		c21.5,0,43,0,64.4,0c1.8,0,3.7,0,5.9,0c0-5.3,0-10.4,0-16.2c-1.7,0-3.4,0-5.2,0c-20.8,0-41.6,0-62.4,0c-1.3,0-2.7,0.1-4,0
		c-5.1-0.3-8.5-3.6-8.4-8.1c0.1-4.3,3.4-7.6,8.3-7.8c3.9-0.2,7.7-0.1,11.6-0.1c20,0,39.9,0,60.3,0c0-5.4,0-10.4,0-16.2
		c-1.8,0-3.5,0-5.3,0c-20.8,0-41.6,0-62.4,0c-1.3,0-2.7,0.1-4,0c-5.1-0.3-8.5-3.7-8.3-8.2c0.1-4.3,3.5-7.6,8.3-7.7
		c10.1-0.1,20.1-0.1,30.2-0.1c13.7,0,27.5,0,41.6,0c0-5.4,0-10.5,0-16.2c-1.8,0-3.6,0-5.4,0c-20.8,0-41.6,0-62.4,0
		c-1.3,0-2.7,0.1-4,0c-4.9-0.3-8.2-3.4-8.3-7.8c-0.1-4.5,3.3-8.1,8.4-8.1c10.6-0.2,21.1-0.1,31.7-0.1c13.2,0,26.5,0,40,0
		c0-5.4,0-10.5,0-16.2c-1.9,0-3.7,0-5.5,0c-31.7,0-63.4,0-95.1,0c-1.7,0-3.4,0.1-5-0.2c-4.1-0.7-7-4.3-6.7-8.2
		c0.4-4.2,2.8-6.7,6.9-7.5c1.6-0.3,3.3-0.1,5-0.1c31.5,0,63.1,0,94.6,0c1.8,0,3.6,0,5.8,0c0-5.5,0-10.6,0-16.2c-2.1,0-4.1,0-6,0
		c-31.4,0-62.8,0-94.1,0c-1.5,0-3,0.1-4.5-0.1c-4.5-0.4-7.6-3.7-7.7-7.8c-0.1-4.2,3-7.5,7.5-8c1.5-0.2,3-0.1,4.5-0.1
		c31.4,0,62.8,0,94.1,0c2,0,4,0,6.2,0c0-5.5,0-10.6,0-16.2c-2.2,0-4.2,0-6.1,0c-31.4,0-62.8,0-94.1,0c-1.7,0-3.4,0.2-5-0.1
		c-4.3-0.8-7-3.4-7-7.9c0-4.5,2.7-7.1,7-7.9c1.6-0.3,3.3-0.1,5-0.1c31.5,0,63.1,0,94.6,0c1.8,0,3.6,0,5.7,0c0-5.5,0-10.4,0-16.2
		c-1.9,0-3.8,0-5.7,0c-31.5,0-63.1,0-94.6,0c-1.7,0-3.4,0.2-5-0.1c-4.3-0.8-7-3.5-7-7.9c0-4.5,2.7-7.1,7.1-7.8
		c1.6-0.3,3.3-0.1,5-0.1c31.4,0,62.8,0,94.1,0c2,0,3.9,0,6.2,0c0-5.5,0-10.5,0-16.2c-1.9,0-3.9,0-5.8,0c-39.6,0-79.2,0-118.8,0
		c-1.7,0-3.4,0.2-5-0.1c-4.3-0.8-7-3.5-6.9-7.9c0.1-4.4,2.8-7.1,7.1-7.8c1.5-0.2,3-0.1,4.5-0.1c33.7,0,67.4,0,101.2,0
		c2.3,0,4.7,0,7.5,0c0-5.3,0-10.4,0-16.2c-1.8,0-3.8,0-5.7,0c-26.3,0-52.7,0-79,0c-0.7,0-1.3,0-2,0c-5.9-0.1-9.5-3.3-9.4-8.2
		c0.1-4.7,3.6-7.7,9.3-7.8c7.4-0.1,14.7,0,22.9,0c0-6.2,0-12.2,0-18.1c0-2-0.1-4,0-6c0.3-4.8,3.7-8.1,8-8c4.3,0.1,7.7,3.4,7.9,8.2
		c0.2,7.7,0,15.4,0,23.6c5.3,0,10.4,0,16.2,0c0-4.7,0-9.4,0-14.2c0-7.9,0-15.8,0-23.7c0-6.3,3.2-10.1,8.1-10
		c4.8,0.1,7.8,3.7,7.8,9.7c0.1,12.6,0,25.1,0,38.5c7.2,0,14.2,0,21.1,0c8.5,0,11.1,2.5,11.1,11.1c0,6.8,0,13.7,0,21.1
		c2.4,0,4.4,0,6.3,0c6.9,0.1,9.8,2.9,9.8,9.9c0,25.2,0,50.3,0,75.5c0,37.9,0.1,75.8-0.1,113.8c0,4.5,1.5,6.9,5.1,9.2
		c12.4,8,24.5,16.4,36.9,24.4c4.6,2.9,6.6,6.5,6.5,12c-0.2,23.8-0.1,47.6-0.1,71.5c0,1.8,0,3.6,0,6c7,0,13.5,0,20,0
		c8.3,0,12.1,2.5,12.2,7.9c0.1,5.4-3.9,8.1-12,8.1c-122,0-244,0-365.9,0c-30.9,0-61.7,0-92.6,0c-1,0-2,0-3,0
		c-5.9-0.1-9.5-3.3-9.4-8.2c0.1-4.7,3.6-7.7,9.3-7.8c7.4-0.1,14.7,0,22.9,0c0-2,0-3.8,0-5.5c0-21.6,0-43.3,0-64.9
		c0-4.7,1.3-8.3,6.1-9.8c5.2-1.5,9.8,2.6,9.9,8.9c0.1,13.4,0,26.8,0,40.3c0,10.1,0,20.1,0,30.6c10.7,0,21.1,0,32,0
		C88.6,443.3,88.6,411.4,88.6,378.7z M105.3,250.1c0,75.3,0,150.2,0,225c37.7,0,75,0,112.5,0c0-2.9,0-5.5,0-8c0-47.1,0-94.3,0-141.4
		c0-9.2,2.1-11.2,11.1-11.3c7,0,13.9,0,20.8,0c0-21.9,0-43,0-64.3C201.6,250.1,153.6,250.1,105.3,250.1z M411.4,377.7
		c0,33.1,0,65.3,0,97.4c10.8,0,21.3,0,32,0c0-24.9,0-49.3-0.1-73.8c0-1.2-0.9-2.9-2-3.6C431.7,391.1,421.9,384.7,411.4,377.7z
		 M233.7,218c-37.7,0-75,0-112.2,0c0,5.5,0,10.6,0,15.6c37.6,0,74.8,0,112.2,0C233.7,228.4,233.7,223.4,233.7,218z"/>
	<path class="st0" d="M177,24.3C137,25,102.1,38.6,72.6,66c-1.1,1-2.2,2.1-3.3,3.1c-3.9,3.2-8.1,3.2-11.3,0
		c-3.2-3.2-3.4-8.3,0.5-11.6c10.8-8.8,21.2-18.3,33-25.4C156.2-6.9,241.1,3.3,295,56.1c1.8,1.8,3.9,4.3,4,6.6c0.1,2.4-1.3,6-3.2,7.1
		c-2.1,1.3-5.7,1.1-8.3,0.4c-1.9-0.4-3.4-2.6-5-4.1C252.8,38.4,217.5,24.8,177,24.3z"/>
	<path class="st0" d="M176.1,48.6c36,0.7,66,12.4,91,36.4c5.2,5,5.1,10.9-0.2,13.8c-4.5,2.5-7.9,0.5-11.2-2.7
		c-14.1-13.5-30.4-23-49.4-27.7c-39.7-9.7-74.9-0.7-105.5,26.3c-1,0.9-1.9,1.9-2.9,2.8c-3.7,3.1-8.3,3.1-11.3,0
		c-3.3-3.3-3.3-7.9,0.5-11.6c21-20.7,46.3-32.7,75.5-36.3C167.5,49.1,172.5,48.9,176.1,48.6z"/>
	<path class="st0" d="M179.7,89c20.6,0.4,40.7,7.9,57.7,23.3c1.4,1.2,2.8,2.5,3.7,4.1c2,3.4,1.8,6.8-1,9.7c-2.8,2.8-6.3,3.1-9.7,1.1
		c-1.7-1-3.1-2.5-4.6-3.9c-27.5-24.6-69.4-24.5-96.8,0.3c-6,5.4-10.8,6.2-14.3,2.2c-3.6-4-2.4-8.7,3.6-14.1
		C134.4,97.2,155.7,89,179.7,89z"/>
	<path class="st0" d="M177.2,129.2c13,0.3,24,4.5,33.2,13.1c4.1,3.8,4.5,8.5,1.4,12c-3.2,3.5-7.6,3.5-12.1-0.2
		c-14.6-12-30-12-44.7,0.1c-4.4,3.6-8.9,3.6-12,0c-3.1-3.5-2.5-8.1,1.6-12C153.9,133.6,165,129.6,177.2,129.2z"/>
	<path class="st0" d="M185.5,177.2c0.1,4.3-3.5,8.1-7.8,8.2c-4.1,0-7.8-3.3-8-7.5c-0.3-4.3,3.3-8.2,7.6-8.4
		C181.5,169.3,185.3,172.9,185.5,177.2z"/>
	<path class="st0" d="M48.9,298.4c4.3,0.1,7.9,4,7.7,8.3c-0.2,4.1-3.8,7.6-7.9,7.6c-4.3,0-8-3.7-8-8.1
		C40.8,301.9,44.6,298.2,48.9,298.4z"/>
	<path class="st0" d="M459.3,306.2c0.1,4.3-3.6,8.1-7.9,8.1c-4.1,0-7.7-3.4-8-7.5c-0.2-4.3,3.3-8.2,7.7-8.4
		C455.4,298.2,459.2,301.8,459.3,306.2z"/>
	<path class="st0" d="M40.7,241.5c0.2-4.4,4.1-7.8,8.4-7.5c4.3,0.3,7.8,4.3,7.4,8.6c-0.4,4.1-4.1,7.5-8.2,7.3
		C44,249.7,40.5,245.8,40.7,241.5z"/>
	<path class="st0" d="M459.3,241.8c0.1,4.3-3.6,8.1-8,8.1c-4.1,0-7.7-3.4-7.9-7.6c-0.2-4.3,3.3-8.2,7.7-8.3
		C455.4,233.8,459.2,237.4,459.3,241.8z"/>
	<path class="st0" d="M56.6,274.1c0,4.3-3.8,8-8.1,7.9c-4.3-0.1-8-3.9-7.8-8.2c0.1-4.1,3.7-7.6,7.8-7.7
		C52.9,266.1,56.6,269.8,56.6,274.1z"/>
	<path class="st0" d="M443.4,273.7c0.2-4.3,4.1-7.8,8.4-7.5c4.2,0.3,7.5,3.9,7.4,8.1c-0.1,4.3-3.9,8-8.2,7.8
		C446.8,281.9,443.2,278,443.4,273.7z"/>
	<path class="st0" d="M161.3,362.6c-4.3-0.1-8-3.8-7.9-8.1c0.1-4.3,4-7.9,8.3-7.7c4.1,0.2,7.6,3.8,7.6,7.9
		C169.4,358.9,165.7,362.6,161.3,362.6z"/>
	<path class="st0" d="M137.1,387c-0.1,4.3-3.9,8-8.2,7.8c-4.3-0.2-7.9-4.1-7.6-8.4c0.2-4.1,3.9-7.5,8-7.5
		C133.6,379,137.2,382.7,137.1,387z"/>
	<path class="st0" d="M201.6,387.1c-0.1,4.3-4,7.9-8.3,7.7c-4.3-0.2-7.9-4.1-7.6-8.4c0.2-4.2,3.9-7.5,8-7.5
		C198,379,201.7,382.7,201.6,387.1z"/>
	<path class="st0" d="M161.7,427c-4.3,0.1-8.1-3.5-8.2-7.8c-0.1-4.1,3.3-7.8,7.4-8.1c4.3-0.3,8.2,3.2,8.5,7.5
		C169.6,423,166,426.9,161.7,427z"/>
	<path class="st0" d="M137.1,290.5c-0.1,4.3-4.1,7.9-8.3,7.7c-4.3-0.2-7.8-4.2-7.5-8.5c0.3-4.2,3.9-7.5,8.1-7.4
		C133.7,282.4,137.3,286.2,137.1,290.5z"/>
	<path class="st0" d="M129,443.4c4.3-0.1,8.1,3.5,8.1,7.9c0,4.3-3.7,8.1-8,8c-4.1,0-7.7-3.5-7.9-7.6
		C121.1,447.3,124.6,443.5,129,443.4z"/>
	<path class="st0" d="M233.8,290.1c0.1,4.3-3.6,8.1-8,8.1c-4.1,0-7.7-3.4-7.9-7.6c-0.2-4.3,3.4-8.2,7.7-8.3
		C229.9,282.1,233.7,285.8,233.8,290.1z"/>
	<path class="st0" d="M201.6,322.3c0.1,4.3-3.6,8.1-8,8c-4.1,0-7.7-3.5-7.9-7.6c-0.2-4.3,3.4-8.2,7.7-8.3
		C197.7,314.4,201.5,318,201.6,322.3z"/>
	<path class="st0" d="M169.3,290.6c-0.2,4.3-4.1,7.9-8.4,7.6c-4.1-0.3-7.5-3.9-7.5-8c0.1-4.4,3.8-8,8.2-7.8
		C166,282.4,169.6,286.3,169.3,290.6z"/>
	<path class="st0" d="M201.6,290.3c0,4.3-3.8,8-8.1,7.9c-4.3-0.1-7.9-3.9-7.8-8.2c0.2-4.2,3.7-7.6,7.9-7.6
		C197.9,282.2,201.6,285.9,201.6,290.3z"/>
	<path class="st0" d="M129.1,314.5c4.3,0,8,3.7,8,8c0,4.1-3.5,7.7-7.6,7.9c-4.3,0.2-8.1-3.4-8.3-7.8
		C121.1,318.3,124.8,314.5,129.1,314.5z"/>
	<path class="st0" d="M161.6,394.8c-4.3,0.1-8.1-3.5-8.1-7.9c0-4.1,3.4-7.7,7.5-8c4.3-0.2,8.2,3.3,8.4,7.6
		C169.5,390.9,165.9,394.7,161.6,394.8z"/>
	<path class="st0" d="M121.2,354.9c-0.1-4.3,3.5-8.1,7.8-8.2c4.1-0.1,7.8,3.3,8,7.5c0.3,4.3-3.3,8.2-7.6,8.4
		C125.2,362.8,121.4,359.2,121.2,354.9z"/>
	<path class="st0" d="M129,411.1c4.3-0.1,8.1,3.5,8.2,7.8c0.1,4.3-3.7,8.1-8,8c-4.1,0-7.7-3.4-7.9-7.6
		C121.1,415.1,124.6,411.3,129,411.1z"/>
	<path class="st0" d="M161.6,314.5c4.3,0.1,7.9,4,7.7,8.3c-0.2,4.3-4.1,7.9-8.4,7.6c-4.1-0.2-7.5-3.9-7.5-8
		C153.5,318,157.3,314.4,161.6,314.5z"/>
	<path class="st0" d="M201.6,419.4c-0.2,4.3-4.1,7.9-8.4,7.6c-4.1-0.3-7.5-3.9-7.5-8c0.1-4.4,3.8-8,8.2-7.8
		C198.2,411.3,201.8,415.1,201.6,419.4z"/>
	<path class="st0" d="M201.6,354.8c-0.1,4.3-3.9,8-8.2,7.8c-4.3-0.2-7.9-4-7.7-8.3c0.2-4.2,3.8-7.6,8-7.5
		C198,346.7,201.6,350.4,201.6,354.8z"/>
	<path class="st0" d="M169.3,451.1c0.1,4.3-3.5,8.1-7.8,8.2c-4.1,0.1-7.8-3.3-8-7.5c-0.3-4.3,3.2-8.2,7.6-8.4
		C165.4,443.1,169.2,446.7,169.3,451.1z"/>
	<path class="st0" d="M193.6,459.2c-4.3,0-8-3.8-7.9-8.1c0.1-4.2,3.6-7.7,7.7-7.8c4.3-0.1,8.1,3.5,8.2,7.8
		C201.6,455.5,197.9,459.3,193.6,459.2z"/>
</g>
</svg>
